<svg width="194" height="42" viewBox="0 0 194 42" fill="none" xmlns="http://www.w3.org/2000/svg">
<path d="M74.74 11.344C77.3213 11.344 79.3373 12.0907 80.788 13.584C82.2387 15.0773 82.964 17.2427 82.964 20.08V34H79.796V20.176C79.796 18.2133 79.284 16.7307 78.26 15.728C77.236 14.704 75.8813 14.192 74.196 14.192C72.34 14.192 70.868 14.7253 69.78 15.792C68.7133 16.8373 68.18 18.448 68.18 20.624V34H65.012V20.176C65.012 18.192 64.5213 16.6987 63.54 15.696C62.58 14.6933 61.2573 14.192 59.572 14.192C57.6947 14.192 56.2013 14.7253 55.092 15.792C54.004 16.8587 53.46 18.4693 53.46 20.624V34H50.26V11.6H53.332V14.864C53.9933 13.7547 54.9213 12.8907 56.116 12.272C57.332 11.6533 58.74 11.344 60.34 11.344C62.004 11.344 63.4333 11.6747 64.628 12.336C65.844 12.9973 66.74 13.9147 67.316 15.088C68.02 13.8933 69.012 12.976 70.292 12.336C71.5933 11.6747 73.076 11.344 74.74 11.344ZM96.71 31.504C98.7367 31.504 100.369 30.8213 101.606 29.456L103.27 31.44C102.523 32.336 101.574 33.0187 100.422 33.488C99.2913 33.9573 98.022 34.192 96.614 34.192C94.822 34.192 93.2327 33.8293 91.846 33.104C90.4593 32.3573 89.382 31.3227 88.614 30C87.8673 28.6773 87.494 27.184 87.494 25.52C87.494 23.8773 87.8567 22.3947 88.582 21.072C89.3287 19.7493 90.342 18.7253 91.622 18C92.9233 17.2533 94.3847 16.88 96.006 16.88C97.542 16.88 98.9393 17.232 100.198 17.936C101.457 18.6187 102.459 19.5893 103.206 20.848C103.953 22.1067 104.337 23.5573 104.358 25.2L90.886 27.824C91.3127 28.9973 92.0273 29.904 93.03 30.544C94.054 31.184 95.2807 31.504 96.71 31.504ZM96.006 19.472C94.9393 19.472 93.9793 19.7173 93.126 20.208C92.294 20.6987 91.6433 21.392 91.174 22.288C90.7047 23.1627 90.47 24.1867 90.47 25.36V25.68L101.318 23.632C101.041 22.3947 100.422 21.392 99.462 20.624C98.502 19.856 97.35 19.472 96.006 19.472ZM124.656 17.04V34H121.712V31.312C121.029 32.2507 120.165 32.9653 119.12 33.456C118.074 33.9467 116.922 34.192 115.664 34.192C114.021 34.192 112.549 33.8293 111.248 33.104C109.946 32.3787 108.922 31.3653 108.176 30.064C107.45 28.7413 107.088 27.2267 107.088 25.52C107.088 23.8133 107.45 22.3093 108.176 21.008C108.922 19.7067 109.946 18.6933 111.248 17.968C112.549 17.2427 114.021 16.88 115.664 16.88C116.88 16.88 118 17.1147 119.024 17.584C120.048 18.032 120.901 18.704 121.584 19.6V17.04H124.656ZM115.92 31.504C116.986 31.504 117.957 31.2587 118.832 30.768C119.706 30.256 120.389 29.552 120.88 28.656C121.37 27.7387 121.616 26.6933 121.616 25.52C121.616 24.3467 121.37 23.312 120.88 22.416C120.389 21.4987 119.706 20.7947 118.832 20.304C117.957 19.8133 116.986 19.568 115.92 19.568C114.832 19.568 113.85 19.8133 112.976 20.304C112.122 20.7947 111.44 21.4987 110.928 22.416C110.437 23.312 110.192 24.3467 110.192 25.52C110.192 26.6933 110.437 27.7387 110.928 28.656C111.44 29.552 112.122 30.256 112.976 30.768C113.85 31.2587 114.832 31.504 115.92 31.504ZM135.62 34.192C133.978 34.192 132.708 33.744 131.812 32.848C130.916 31.9307 130.468 30.6507 130.468 29.008V10.256H133.54V28.752C133.54 29.6693 133.754 30.3733 134.18 30.864C134.628 31.3547 135.29 31.6 136.164 31.6C136.698 31.6 137.199 31.4933 137.668 31.28L137.828 33.808C137.124 34.064 136.388 34.192 135.62 34.192ZM149.933 11.6C152.835 11.6 155.117 12.2933 156.781 13.68C158.445 15.0667 159.277 16.976 159.277 19.408C159.277 21.84 158.445 23.7493 156.781 25.136C155.117 26.5227 152.835 27.216 149.933 27.216H144.397V34H141.197V11.6H149.933ZM149.837 24.432C151.864 24.432 153.411 24.0053 154.477 23.152C155.544 22.2773 156.077 21.0293 156.077 19.408C156.077 17.7867 155.544 16.5493 154.477 15.696C153.411 14.8213 151.864 14.384 149.837 14.384H144.397V24.432H149.837ZM170.732 34.192C169.047 34.192 167.532 33.8187 166.188 33.072C164.844 32.3253 163.788 31.3013 163.02 30C162.274 28.6773 161.9 27.184 161.9 25.52C161.9 23.856 162.274 22.3733 163.02 21.072C163.788 19.7493 164.844 18.7253 166.188 18C167.532 17.2533 169.047 16.88 170.732 16.88C172.418 16.88 173.922 17.2533 175.244 18C176.588 18.7253 177.634 19.7493 178.38 21.072C179.148 22.3733 179.532 23.856 179.532 25.52C179.532 27.184 179.148 28.6773 178.38 30C177.634 31.3013 176.588 32.3253 175.244 33.072C173.922 33.8187 172.418 34.192 170.732 34.192ZM170.732 31.504C171.82 31.504 172.791 31.2587 173.644 30.768C174.519 30.256 175.202 29.552 175.692 28.656C176.183 27.7387 176.428 26.6933 176.428 25.52C176.428 24.3467 176.183 23.312 175.692 22.416C175.202 21.4987 174.519 20.7947 173.644 20.304C172.791 19.8133 171.82 19.568 170.732 19.568C169.644 19.568 168.663 19.8133 167.788 20.304C166.935 20.7947 166.252 21.4987 165.74 22.416C165.25 23.312 165.004 24.3467 165.004 25.52C165.004 26.6933 165.25 27.7387 165.74 28.656C166.252 29.552 166.935 30.256 167.788 30.768C168.663 31.2587 169.644 31.504 170.732 31.504ZM192.709 33.008C192.261 33.392 191.706 33.6907 191.045 33.904C190.383 34.096 189.701 34.192 188.997 34.192C187.29 34.192 185.967 33.7333 185.029 32.816C184.09 31.8987 183.621 30.5867 183.621 28.88V13.328H186.693V17.04H191.557V19.568H186.693V28.752C186.693 29.6693 186.917 30.3733 187.365 30.864C187.834 31.3547 188.495 31.6 189.349 31.6C190.287 31.6 191.087 31.3333 191.749 30.8L192.709 33.008Z" fill="black"/>
<path d="M38.1 16.5C38.1 16.7 38.1 16.8 38.1 16.9C38.1 21.7 38.1 26.5 38.1 31.3C38.1 33.7 36.6 35.5 34.3 35.9C34 35.9 33.7 36 33.4 36C26 36 18.7 36 11.3 36C8.90001 36 7.10001 34.5 6.70001 32.2C6.70001 31.9 6.60001 31.7 6.60001 31.4C6.60001 26.6 6.60001 21.8 6.60001 16.9C6.60001 16.8 6.60001 16.7 6.60001 16.5C17.1 16.5 27.6 16.5 38.1 16.5ZM21.4 30.8C23.7 32.7 27.4 32.7 29.8 30.3C30.6 29.5 31.3 28.6 31.7 27.6C32.7 25.4 33.2 23.2 33.5 20.8C33.6 20.1 33.2 19.6 32.5 19.6C31.4 19.5 30.3 19.5 29.2 19.5C27.3 19.6 25.5 20 23.8 20.9C22.5 21.6 21.4 22.5 20.7 23.6C20 23.2 19.3 22.7 18.5 22.3C16.4 21.4 14.2 21.2 12 21.4C11.3 21.5 10.9 21.9 11 22.7C11.2 23.9 11.5 25.1 11.8 26.3C12.2 27.7 12.7 29 13.7 30.1C16 32.8 19.6 32.7 21.4 30.8Z" fill="white"/>
<path d="M37.9 12C27.5667 12 17.2333 12 7.0023 12L6.89999 11.8876C7.41155 11.4382 7.9231 10.8764 8.43465 10.427C10.1739 9.07865 12.2201 8.29213 14.3686 7.8427C19.6888 6.7191 25.0089 6.7191 30.329 7.8427C32.6822 8.29213 34.8307 9.19101 36.6723 10.764C36.9792 11.1011 37.2861 11.4382 37.5931 11.7753C37.7977 11.7753 37.7977 11.8876 37.9 12Z" fill="#EA580C"/>
<path d="M22.3 15C17 15 11.7 15 6.30001 15C6.20001 15 6.10001 15 6.00001 15C5.40001 15 5.10001 14.7 5.10001 14.2C5.10001 13.7 5.40001 13.5 6.00001 13.5C9.90001 13.5 13.7 13.5 17.6 13.5C24.5 13.5 31.4 13.5 38.3 13.5C38.5 13.5 38.7 13.5 38.9 13.5C39.3 13.6 39.5 13.9 39.4 14.3C39.4 14.7 39.1 14.9 38.8 15C38.6 15 38.5 15 38.3 15C33.1 15 27.7 15 22.3 15Z" fill="white"/>
<path d="M22.5017 1.5C23.2254 1.5 23.9491 1.5 24.6729 1.5C25.1898 1.5 25.5 1.82 25.5 2.24667C25.5 2.67333 25.1898 2.99333 24.6729 3.1C23.2254 3.1 21.6746 3.1 20.2271 3.1C19.7102 3.1 19.4 2.78 19.4 2.24667C19.4 1.71333 19.7102 1.5 20.2271 1.5C20.9508 1.5 21.6746 1.5 22.5017 1.5Z" fill="#EA580C"/>
<path d="M5.09999 21.1C3.99999 20.8 2.9 20.5 1.9 20.2C1.5 20.1 1.3 19.7 1.4 19.3C1.5 18.9 1.9 18.7 2.3 18.8C3.2 19 4 19.2 4.9 19.5C4.99999 19.5 5.09999 19.7 5.09999 19.8C5.19999 20.2 5.09999 20.6 5.09999 21.1Z" fill="white"/>
<path d="M39.6 21.1C39.6 20.6 39.6 20.2 39.6 19.7C39.6 19.6 39.7 19.5 39.8 19.4C40.7 19.1 41.5 18.9 42.4 18.6C42.8 18.5 43.2 18.7 43.3 19.1C43.4 19.5 43.2 19.9 42.9 20C41.8 20.5 40.7 20.8 39.6 21.1Z" fill="white"/>
<path d="M23.8 6C22.8 6 21.9 6 20.9 6C20.9 5.5 20.9 5.1 20.9 4.5C21.9 4.5 22.8 4.5 23.8 4.5C23.8 5 23.8 5.5 23.8 6Z" fill="#EA580C"/>
<path d="M21.4 30.8C19.6 32.6 16.1 32.8 13.8 30.2C12.9 29.1 12.3 27.8 11.9 26.4C11.6 25.2 11.4 24 11.1 22.8C11 22.1 11.3 21.6 12.1 21.5C14.3 21.3 16.5 21.4 18.6 22.4C19.4 22.7 20 23.2 20.8 23.7C21.6 22.6 22.6 21.6 23.9 21C25.6 20.1 27.4 19.7 29.3 19.6C30.4 19.5 31.5 19.6 32.6 19.7C33.3 19.7 33.7 20.2 33.6 20.9C33.3 23.2 32.8 25.5 31.8 27.7C31.3 28.7 30.7 29.6 29.9 30.4C27.4 32.7 23.7 32.8 21.4 30.8ZM32 21C29.3 20.9 26.8 21 24.4 22.3C23.1 23 22.1 24 21.5 25.4C20.6 27.4 21.7 29.8 23.8 30.5C25.8 31.1 27.9 30.5 29.3 28.7C29.9 27.9 30.3 27.1 30.7 26.2C31.4 24.5 31.8 22.8 32 21ZM12.7 22.9C13.1 25 13.5 27 14.7 28.8C15.2 29.5 15.8 30.1 16.6 30.4C17.8 30.9 19 30.8 20.1 30C20.4 29.8 20.5 29.6 20.3 29.2C19.7 28 19.6 26.8 19.9 25.5C20 25.1 19.9 24.9 19.7 24.7C17.6 23 15.2 22.9 12.7 22.9Z" fill="black"/>
<path d="M32 21C31.7 22.8 31.4 24.5 30.7 26.1C30.3 27 29.9 27.9 29.3 28.6C27.9 30.4 25.8 31 23.8 30.4C21.7 29.8 20.6 27.4 21.5 25.3C22.1 23.9 23.1 22.9 24.4 22.2C26.8 21 29.3 20.9 32 21ZM29.1 22.8C28.8 22.9 28.6 22.9 28.5 23C27.3 23.8 26.1 24.5 25 25.4C24.4 25.9 23.8 26.4 23.2 27C22.9 27.3 22.9 27.8 23.2 28.1C23.5 28.4 23.9 28.4 24.2 28.1C24.3 28 24.4 27.9 24.5 27.9C25.7 26.7 27 25.7 28.5 24.8C28.8 24.6 29.1 24.5 29.4 24.3C29.7 24.1 29.8 23.8 29.7 23.5C29.6 23.2 29.3 23 29.1 22.8Z" fill="white"/>
<path d="M12.7 22.9C15.3 22.8 17.7 23 19.7 24.7C20 24.9 20 25.1 19.9 25.5C19.5 26.8 19.7 28 20.3 29.2C20.5 29.6 20.4 29.8 20.1 30C19 30.8 17.8 30.9 16.6 30.4C15.8 30.1 15.1 29.5 14.7 28.8C13.4 27.1 13.1 25 12.7 22.9ZM18.6 26.8C18.6 26.7 18.5 26.5 18.4 26.4C17.4 25.7 16.3 25 15.3 24.3C15 24.1 14.6 24.3 14.4 24.6C14.2 24.9 14.3 25.3 14.6 25.6C15.6 26.3 16.5 26.9 17.5 27.6C18 27.9 18.6 27.5 18.6 26.8Z" fill="white"/>
<path d="M29.1 22.8C29.3 23 29.6 23.1 29.7 23.4C29.9 23.7 29.7 24 29.4 24.2C29.1 24.4 28.8 24.5 28.5 24.7C27 25.6 25.7 26.6 24.5 27.8C24.4 27.9 24.3 28 24.2 28C23.9 28.3 23.5 28.3 23.2 28C22.9 27.7 22.9 27.3 23.2 26.9C23.8 26.3 24.3 25.8 25 25.3C26.1 24.5 27.3 23.7 28.5 22.9C28.7 22.9 28.8 22.9 29.1 22.8Z" fill="black"/>
<path d="M18.6 26.8C18.6 27.5 18 27.8 17.5 27.5C16.5 26.9 15.5 26.2 14.6 25.5C14.3 25.3 14.2 24.9 14.4 24.5C14.6 24.2 15 24 15.3 24.2C16.4 24.9 17.4 25.6 18.4 26.3C18.5 26.5 18.6 26.8 18.6 26.8Z" fill="black"/>
<path d="M44.8 19.8C44.5 20.9 43.7 21.5 42.6 21.8C41.7 22 40.9 22.3 40 22.5C39.7 22.6 39.6 22.7 39.6 23C39.6 25.8 39.6 28.5 39.6 31.3C39.6 34.4 37.6 36.8 34.6 37.3C34.2 37.4 33.9 37.4 33.5 37.4C26.1 37.4 18.7 37.4 11.4 37.4C8.3 37.4 5.9 35.4 5.3 32.3C5.2 31.9 5.2 31.6 5.2 31.2C5.2 28.5 5.2 25.8 5.2 23.2C5.2 22.8 5.1 22.6 4.7 22.5C3.7 22.2 2.6 21.9 1.6 21.6C0.6 21.3 0 20.4 0 19.5C0 18.6 0.6 17.7 1.5 17.4C2 17.2 2.5 17.2 3 17.4C3.7 17.6 4.4 17.8 5.1 18H5.2C5.2 17.6 5.2 17.1 5.2 16.6C5.2 16.5 5.1 16.4 5 16.3C4.1 15.8 3.7 15.1 3.7 14.1C3.8 13.1 4.3 12.5 5.2 12.1C5.3 12.1 5.4 12 5.5 11.9C6.6 10 8.3 8.9 10.2 8C12.5 7 14.9 6.5 17.3 6.2C18 6.1 18.7 6.1 19.4 6C19.4 5.5 19.4 5 19.4 4.4C19.4 4.3 19.2 4.2 19.1 4.1C18.3 3.6 17.8 2.7 18 1.8C18.1 0.9 18.8 0.2 19.7 0C19.8 0 20 0 20.2 0C21.6 0 23 0 24.4 0C25.6 0 26.4 0.6 26.7 1.7C27 2.7 26.5 3.7 25.5 4.3C25.4 4.4 25.3 4.5 25.3 4.6C25.3 5.1 25.3 5.6 25.3 6.1C26.3 6.2 27.2 6.3 28.1 6.4C30.9 6.8 33.7 7.4 36.1 8.9C37.3 9.7 38.4 10.6 39.1 11.9C39.2 12 39.3 12.1 39.5 12.2C40.3 12.6 40.9 13.2 40.9 14.1C41 15.1 40.5 15.8 39.7 16.2C39.5 16.3 39.4 16.5 39.4 16.7C39.4 17.1 39.4 17.5 39.4 18C40.1 17.8 40.7 17.7 41.3 17.5C42.9 16.9 44.2 17.6 44.7 19.1C44.8 19.3 44.8 19.6 44.8 19.8ZM38.1 16.5C27.6 16.5 17.1 16.5 6.7 16.5C6.7 16.6 6.7 16.8 6.7 16.9C6.7 21.7 6.7 26.5 6.7 31.4C6.7 31.7 6.7 31.9 6.8 32.2C7.2 34.5 9 36 11.4 36C18.8 36 26.1 36 33.5 36C33.8 36 34.1 36 34.4 35.9C36.7 35.5 38.2 33.7 38.2 31.3C38.2 26.5 38.2 21.7 38.2 16.9C38.1 16.8 38.1 16.7 38.1 16.5ZM37.5 11.9C37.4 11.8 37.4 11.7 37.3 11.6C37 11.3 36.7 11 36.4 10.7C34.6 9.3 32.4 8.5 30.2 8.1C25 7.1 19.8 7.1 14.6 8.1C12.5 8.5 10.6 9.2 8.8 10.4C8.3 10.8 7.8 11.3 7.3 11.7L7.4 11.8C17.3 11.9 27.4 11.9 37.5 11.9ZM22.3 15C27.7 15 33 15 38.4 15C38.6 15 38.7 15 38.9 15C39.3 15 39.5 14.7 39.5 14.3C39.5 13.9 39.3 13.6 39 13.5C38.8 13.5 38.6 13.5 38.4 13.5C31.5 13.5 24.6 13.5 17.7 13.5C13.8 13.5 10 13.5 6.1 13.5C5.5 13.5 5.2 13.8 5.2 14.2C5.2 14.7 5.5 14.9 6.1 15C6.2 15 6.3 15 6.4 15C11.7 15 17 15 22.3 15ZM22.4 1.5C21.7 1.5 21 1.5 20.3 1.5C19.8 1.5 19.5 1.8 19.5 2.2C19.5 2.6 19.8 2.9 20.3 3C21.7 3 23.2 3 24.6 3C25.1 3 25.4 2.7 25.4 2.2C25.4 1.7 25.1 1.5 24.6 1.5C23.8 1.5 23.1 1.5 22.4 1.5ZM5.1 21.1C5.1 20.6 5.1 20.2 5.1 19.8C5.1 19.7 5 19.5 4.9 19.5C4.1 19.2 3.2 19 2.3 18.8C1.9 18.7 1.5 18.9 1.4 19.3C1.3 19.6 1.5 20 1.9 20.2C3 20.5 4 20.8 5.1 21.1ZM39.6 21.1C40.7 20.8 41.8 20.5 42.9 20.1C43.3 20 43.5 19.6 43.3 19.2C43.2 18.8 42.8 18.6 42.4 18.7C41.5 18.9 40.7 19.2 39.8 19.5C39.7 19.5 39.6 19.7 39.6 19.8C39.6 20.2 39.6 20.6 39.6 21.1ZM23.8 6C23.8 5.5 23.8 5 23.8 4.5C22.8 4.5 21.8 4.5 20.9 4.5C20.9 5 20.9 5.5 20.9 6C21.9 6 22.8 6 23.8 6Z" fill="black"/>
</svg>
